<mxfile host="app.diagrams.net" modified="2024-02-07T01:32:23.098Z" agent="Mozilla/5.0 (Macintosh; Intel Mac OS X 10_15_7) AppleWebKit/537.36 (KHTML, like Gecko) Chrome/121.0.0.0 Safari/537.36" version="23.1.1" etag="btvaFM4Cl68zq6VLxWxA" type="github">
  <diagram name="페이지-1" id="EPsL08cg-BGWuy7wJVo3">
    <mxGraphModel>
      <root>
        <mxCell id="0" />
        <mxCell id="1" parent="0" />
      </root>
    </mxGraphModel>
  </diagram>
</mxfile>
